<svg width="189" height="55" viewBox="0 0 189 55" fill="none" xmlns="http://www.w3.org/2000/svg">
<g clip-path="url(#clip0_2002_518)">
<path d="M60.9164 28.1367C60.9164 22.3427 64.3114 18.1757 70.2814 18.1757C74.9144 18.1757 78.1764 20.4427 78.1764 25.2367C78.1764 25.6317 78.1484 26.0537 78.0714 26.5037L74.2034 26.2647C74.2534 25.9477 74.2814 25.6317 74.2814 25.3147C74.2814 22.8647 72.7834 21.3367 70.2534 21.3367C66.7024 21.3367 65.0714 24.1537 65.0714 28.0317C65.0714 31.9087 66.7024 34.6697 70.0424 34.6697C72.7784 34.6697 74.3314 32.7477 74.5424 30.1927L78.3314 30.5367C77.8604 34.9927 74.9364 37.8367 69.8594 37.8367C63.9124 37.8367 60.9104 33.6477 60.9104 28.1427L60.9164 28.1367ZM80.2294 30.1697C80.2294 25.5587 83.1534 22.5037 87.7804 22.5037C92.4074 22.5037 95.2254 25.5587 95.2254 30.1697C95.2254 34.7817 92.2794 37.8647 87.5914 37.8647C82.9034 37.8647 80.2234 34.7817 80.2234 30.1697H80.2294ZM91.4424 30.1697C91.4424 27.1647 90.0214 25.5317 87.7084 25.5317C85.3944 25.5317 83.9964 27.1647 83.9964 30.1697C83.9964 33.1757 85.4164 34.8317 87.7084 34.8317C89.9994 34.8317 91.4424 33.1697 91.4424 30.1697ZM96.0474 22.7367H99.9144L103.281 35.0427H103.387L106.649 22.7367H110.095L105.517 37.6257H100.99L96.0414 22.7367H96.0474ZM111.077 30.1927C111.077 25.9257 113.656 22.4977 118.395 22.4977C122.606 22.4977 124.919 25.2367 124.919 28.5867C124.919 29.1927 124.869 29.7697 124.708 30.2977H114.627C114.677 32.7757 115.915 34.8317 118.655 34.8317C121.074 34.8317 122.184 33.5927 122.473 31.8817L125.052 32.1197C124.686 35.2317 122.656 37.8647 118.212 37.8647C113.767 37.8647 111.082 35.0977 111.082 30.1977L111.077 30.1927ZM121.574 28.7197C121.546 26.8477 120.364 25.5317 118.389 25.5317C116.231 25.5317 115.127 26.9037 114.761 28.7197H121.574ZM127.732 22.7367H131.522V24.1587C131.522 24.5537 131.494 25.1867 131.472 25.7147H131.577C132.315 23.7367 133.658 22.4977 136.287 22.4977H136.631V26.3427C136.21 26.2087 135.738 26.1037 135.261 26.1037C132.659 26.1037 131.472 27.9477 131.472 30.2647V37.6147H127.738V22.7257L127.732 22.7367ZM139.023 18.3927H147.445C151.972 18.3927 154.918 20.3977 154.918 24.6647C154.918 28.9317 151.972 31.0927 147.445 31.0927H142.918V37.6257H139.023V18.3927ZM150.968 24.7427C150.968 22.6867 149.598 21.2927 147.151 21.2927H142.912V28.2197H147.151C149.598 28.2197 150.968 26.8257 150.968 24.7427ZM157.232 17.6257H161.049V20.6317H157.232V17.6257ZM157.232 22.7367H161.021V37.6257H157.232V22.7367ZM171.679 25.5817C169.177 25.5817 168.234 27.7697 168.234 29.9037V37.6257H164.5V22.7367H168.289V24.1587C168.289 24.5257 168.262 25.1087 168.239 25.6087H168.345C168.922 24.0257 170.503 22.4977 172.978 22.4977C176.872 22.4977 178.004 24.7647 178.004 28.1867V37.6197H174.27V29.1867C174.27 26.9977 173.799 25.5757 171.69 25.5757L171.679 25.5817Z" fill="#022C22"/>
<path d="M20.6644 47.6257C15.3174 47.6257 10.9824 43.2857 10.9824 37.9317V17.3197C10.9824 11.9657 15.3174 7.62573 20.6644 7.62573H41.2474C46.5944 7.62573 50.9294 11.9657 50.9294 17.3197V37.9317C50.9294 43.2857 46.5944 47.6257 41.2474 47.6257H20.6644Z" fill="#065F46"/>
<path d="M32.3205 35.8426C27.0665 36.7756 26.0405 40.5257 25.0245 42.4367C24.8415 42.7757 24.3255 42.6317 24.3425 42.2477C24.4705 39.6257 25.1305 34.4366 27.4435 31.3976C29.5525 28.6196 34.9285 26.9477 37.2475 30.2477C38.4575 31.9647 37.4635 34.9367 32.3205 35.8477V35.8426Z" fill="white"/>
<path d="M32.3205 27.9427C27.0665 28.8757 26.0405 32.6257 25.0245 34.5367C24.8415 34.8757 24.3255 34.7317 24.3425 34.3477C24.4705 31.7257 25.1305 26.5367 27.4435 23.4977C29.5525 20.7197 34.9285 19.0477 37.2475 22.3477C38.4575 24.0647 37.4635 27.0367 32.3205 27.9477V27.9427Z" fill="white"/>
<path d="M32.3205 20.0477C27.0665 20.9817 26.0405 24.7317 25.0245 26.6427C24.8415 26.9817 24.3255 26.8367 24.3425 26.4537C24.4705 23.8317 25.1305 18.6427 27.4435 15.6037C29.5525 12.8257 34.9285 11.1537 37.2475 14.4537C38.4575 16.1697 37.4635 19.1427 32.3205 20.0537V20.0477Z" fill="white"/>
</g>
<defs>
<clipPath id="clip0_2002_518">
<rect width="167" height="40" fill="white" transform="translate(10.9824 7.62573)"/>
</clipPath>
</defs>
</svg>
